<svg xmlns="http://www.w3.org/2000/svg" viewBox="0 0 100 100">
  <defs>
    <linearGradient id="bg" x1="0" y1="0" x2="1" y2="1">
      <stop offset="0%" stop-color="#1a2332"/>
      <stop offset="100%" stop-color="#0b0f17"/>
    </linearGradient>
    <linearGradient id="van" x1="0" y1="0" x2="0" y2="1">
      <stop offset="0%" stop-color="#ffb347"/>
      <stop offset="100%" stop-color="#e08e1c"/>
    </linearGradient>
  </defs>
  <rect width="100" height="100" rx="22" fill="url(#bg)"/>
  <rect x="8" y="78" width="84" height="5" rx="2.5" fill="#4a5568"/>
  <path d="M14 46 h48 a8 8 0 0 1 8 8 v22 a3 3 0 0 1 -3 3 h-58 a3 3 0 0 1 -3 -3 v-27 a3 3 0 0 1 3 -3 z" fill="url(#van)"/>
  <path d="M68 46 l14 -13 a5 5 0 0 1 5 5 v8 h-19 z" fill="#e08e1c"/>
  <rect x="24" y="50" width="24" height="11" rx="3" fill="#2d3748"/>
  <rect x="52" y="50" width="18" height="11" rx="3" fill="#2d3748"/>
  <circle cx="30" cy="80" r="7" fill="#2d3748"/>
  <circle cx="74" cy="80" r="7" fill="#2d3748"/>
  <circle cx="30" cy="80" r="3" fill="#a0aec0"/>
  <circle cx="74" cy="80" r="3" fill="#a0aec0"/>
</svg>